<svg width="19" height="15" viewBox="0 0 19 15" fill="none" xmlns="http://www.w3.org/2000/svg">
<path d="M11.2125 10.166C12.361 9.68185 13.2676 9.02279 13.932 8.18859C14.5963 7.35458 14.9285 6.44633 14.9285 5.46381C14.9285 4.48125 14.5963 3.57293 13.9318 2.73888C13.2675 1.90483 12.361 1.2457 11.2123 0.761398C10.0637 0.277175 8.81439 0.0351562 7.46421 0.0351562C6.11415 0.0351562 4.86484 0.277323 3.71614 0.761398C2.56754 1.24566 1.661 1.90479 0.996669 2.73888C0.33226 3.57308 0 4.48125 0 5.46385C0 6.30491 0.251303 7.09692 0.753128 7.8391C1.25492 8.58112 1.94413 9.2068 2.82055 9.71564C2.74992 9.88543 2.67747 10.0407 2.60323 10.1823C2.52896 10.3236 2.44069 10.4596 2.33811 10.5905C2.23562 10.7214 2.15618 10.8238 2.09959 10.8978C2.04303 10.972 1.95115 11.0765 1.82385 11.2105C1.69658 11.3449 1.61525 11.4332 1.57997 11.4755C1.57997 11.4684 1.56582 11.4844 1.53753 11.5233C1.50919 11.5622 1.4933 11.5797 1.4898 11.5764C1.48624 11.5726 1.47209 11.5903 1.44736 11.6292C1.42262 11.6681 1.41022 11.6875 1.41022 11.6875L1.38367 11.7404C1.3732 11.7617 1.36599 11.7826 1.3625 11.8039C1.35894 11.825 1.35715 11.8481 1.35715 11.8728C1.35715 11.8974 1.36064 11.9203 1.36785 11.9416C1.382 12.0334 1.42263 12.1075 1.48977 12.1643C1.55687 12.2208 1.62925 12.2489 1.70709 12.2489H1.73892C2.09227 12.1995 2.39627 12.143 2.65069 12.0793C3.73924 11.7967 4.72183 11.3441 5.59829 10.7221C6.2344 10.8352 6.85644 10.8918 7.46429 10.8918C8.81446 10.8922 10.0639 10.6503 11.2125 10.166Z" fill="#006EDB"/>
<path d="M18.2474 10.5582C18.7494 9.81964 19.0002 9.02648 19.0002 8.17817C19.0002 7.30866 18.7348 6.49529 18.2049 5.73905C17.6747 4.98287 16.9536 4.35367 16.0419 3.85181C16.2043 4.38189 16.2856 4.91907 16.2856 5.46346C16.2856 6.41055 16.0491 7.30825 15.5752 8.15656C15.1016 9.00461 14.4231 9.7538 13.5395 10.4042C12.7196 10.9979 11.7865 11.4537 10.7403 11.7719C9.69439 12.0899 8.60224 12.249 7.46419 12.249C7.25222 12.249 6.94116 12.235 6.53125 12.2068C7.95194 13.1396 9.62015 13.6063 11.5356 13.6063C12.1436 13.6063 12.7655 13.5496 13.4018 13.4366C14.2782 14.0588 15.2608 14.5109 16.3493 14.7939C16.6037 14.8577 16.9077 14.9141 17.2611 14.9635C17.3459 14.9706 17.4238 14.9458 17.4945 14.8893C17.5651 14.8327 17.6111 14.7552 17.6322 14.6563C17.6289 14.6139 17.6322 14.5906 17.6429 14.5872C17.6533 14.5839 17.6516 14.5608 17.6376 14.5184C17.6236 14.476 17.6165 14.4548 17.6165 14.4548L17.59 14.4019C17.5827 14.3879 17.5707 14.3683 17.5529 14.3437C17.5352 14.3192 17.5212 14.3012 17.5105 14.2907C17.5001 14.2801 17.4843 14.2624 17.4629 14.2378C17.4418 14.2133 17.4276 14.1973 17.4205 14.1902C17.3852 14.1477 17.3039 14.0594 17.1767 13.925C17.0494 13.7909 16.9577 13.6866 16.9011 13.6124C16.8445 13.5382 16.765 13.4358 16.6625 13.3049C16.5601 13.1742 16.4717 13.0381 16.3974 12.8967C16.3232 12.7554 16.2508 12.5998 16.1801 12.4303C17.0566 11.9209 17.7456 11.2971 18.2474 10.5582Z" fill="#006EDB"/>
</svg>
