<svg width="17" height="17" viewBox="0 0 17 17" fill="none" xmlns="http://www.w3.org/2000/svg">
<g opacity="0.85" clip-path="url(#clip0)">
<path d="M16.9468 7.55609C16.92 7.31715 16.6413 7.1374 16.4003 7.1374C15.6214 7.1374 14.9302 6.68026 14.6403 5.97271C14.3444 5.24818 14.5354 4.40338 15.1156 3.87103C15.2984 3.70392 15.3207 3.42411 15.1675 3.22987C14.7687 2.72362 14.3157 2.26626 13.8209 1.86992C13.6273 1.71465 13.3429 1.73626 13.1749 1.92219C12.6683 2.48329 11.7582 2.69179 11.0549 2.39837C10.3233 2.09055 9.86154 1.34896 9.9069 0.552973C9.92182 0.302788 9.73891 0.0853925 9.4896 0.0563525C8.85462 -0.0171664 8.21405 -0.0192984 7.57723 0.0513533C7.33109 0.0785553 7.14832 0.290804 7.15648 0.537828C7.18405 1.32602 6.71706 2.05452 5.99253 2.35132C5.2977 2.63518 4.39394 2.42822 3.88835 1.87205C3.72124 1.68884 3.44179 1.66634 3.24689 1.81831C2.73755 2.21803 2.27431 2.67568 1.87187 3.17782C1.71505 3.37301 1.73821 3.65591 1.92252 3.82361C2.51428 4.35949 2.70506 5.21157 2.39782 5.94456C2.10448 6.64335 1.37893 7.09351 0.548382 7.09351C0.278862 7.08483 0.0870509 7.26591 0.0572757 7.51102C-0.0174195 8.14939 -0.0182282 8.80018 0.0536733 9.44376C0.0805077 9.68373 0.367452 9.86194 0.611094 9.86194C1.35143 9.84312 2.06177 10.3011 2.36018 11.0266C2.65712 11.7511 2.46598 12.5955 1.88474 13.1286C1.70292 13.2957 1.67969 13.5749 1.8332 13.7689C2.22792 14.272 2.68139 14.7296 3.17764 15.1293C3.37246 15.2862 3.65581 15.2643 3.82468 15.0781C4.33328 14.5157 5.24323 14.3076 5.94364 14.6016C6.67736 14.9086 7.13891 15.6501 7.09384 16.4463C7.07907 16.6965 7.26242 16.9145 7.51084 16.9429C7.8358 16.9809 8.16244 16.9997 8.49012 16.9997C8.8011 16.9997 9.11216 16.9828 9.42322 16.9481C9.66965 16.9209 9.85213 16.7085 9.84382 16.4614C9.81537 15.6735 10.2834 14.945 11.007 14.6488C11.7065 14.3631 12.6062 14.5721 13.1121 15.1275C13.2801 15.3104 13.5578 15.3326 13.7536 15.1812C14.262 14.7825 14.7244 14.3251 15.1286 13.8216C15.2855 13.6268 15.2633 13.3435 15.0779 13.1755C14.4863 12.64 14.2945 11.7875 14.6017 11.0553C14.8905 10.3659 15.5891 9.90304 16.3405 9.90304L16.4456 9.90583C16.6895 9.9256 16.9137 9.73777 16.9432 9.4889C17.0182 8.84995 17.019 8.1999 16.9468 7.55609ZM8.50033 13.4001C5.79388 13.4001 3.60001 11.2062 3.60001 8.49985C3.60001 5.79347 5.79396 3.5996 8.50033 3.5996C11.2067 3.5996 13.4007 5.79347 13.4007 8.49985C13.4007 9.41847 13.1474 10.2777 12.7075 11.0124L10.5618 8.86664C10.7171 8.50037 10.7992 8.10329 10.7991 7.6935C10.7991 6.89104 10.4866 6.13666 9.9191 5.56932C9.35176 5.00197 8.59738 4.68951 7.79507 4.68951C7.52731 4.68951 7.26081 4.7251 7.00297 4.79531C6.89005 4.82611 6.79771 4.91919 6.76764 5.03233C6.73691 5.14805 6.77154 5.26664 6.86197 5.35714C6.86197 5.35714 7.9213 6.42463 8.27573 6.779C8.31286 6.81612 8.31279 6.90471 8.30757 6.93662L8.30426 6.95993C8.26853 7.34958 8.19964 7.8173 8.14281 7.99706C8.13517 8.00463 8.12796 8.01103 8.12017 8.01882C8.11201 8.02698 8.10451 8.03485 8.09664 8.04293C7.91454 8.10138 7.4396 8.17108 7.04378 8.20651L7.04385 8.20438L7.02606 8.20887C7.0229 8.20923 7.01702 8.20967 7.00922 8.20967C6.96644 8.20967 6.9035 8.19769 6.84631 8.14057C6.47739 7.77165 5.45959 6.76113 5.45959 6.76113C5.36828 6.67011 5.27462 6.651 5.2122 6.651C5.06671 6.651 4.93643 6.75613 4.89541 6.90692C4.61523 7.94376 4.91224 9.05904 5.67074 9.81761C6.23823 10.385 6.99268 10.6975 7.79514 10.6975C8.20494 10.6975 8.60201 10.6155 8.96821 10.4602L11.1372 12.6292C10.3757 13.1165 9.47145 13.4001 8.50033 13.4001Z" fill="#006EDB"/>
</g>
<defs>
<clipPath id="clip0">
<rect width="17" height="17" fill="white"/>
</clipPath>
</defs>
</svg>
